<svg width="209" height="47" viewBox="0 0 209 47" fill="none" xmlns="http://www.w3.org/2000/svg">
<path d="M5.32797 23.424C3.07197 22.128 1.05597 20.064 0.76797 18.192C-3.01898e-05 12.768 4.31997 10.32 9.02397 10.32C11.568 10.416 14.112 10.752 16.56 11.376L16.992 17.472H16.752C14.16 15.456 11.376 11.328 8.59197 11.232C6.43197 11.136 4.89597 12.192 4.89597 14.544C4.89597 16.464 5.95197 17.52 7.34397 18.432C8.01597 18.864 8.68797 19.248 9.35997 19.584L12.96 21.36C16.08 23.088 18.768 25.488 18.72 28.368C18.72 32.256 15.168 36.24 10.32 36.24C7.29597 36.24 4.27197 35.856 1.34397 35.088L1.58397 27.984C4.70397 31.008 7.24797 35.472 10.464 35.472C12.864 35.472 14.256 33.792 14.256 31.584C14.112 29.808 13.296 27.936 8.78397 25.44L5.32797 23.424ZM38.8492 10.896H43.9372C41.8732 14.832 40.3852 18.432 37.6492 24.768L31.2652 39.456C30.7372 40.752 30.0652 41.904 29.1532 42.96C28.0492 44.304 26.5612 45.312 24.9292 45.888C24.2092 46.08 23.4892 46.272 22.7692 46.368C22.1452 46.416 21.4732 46.464 20.8492 46.464L21.3772 41.376C24.4972 41.28 26.8012 43.824 28.5772 41.952L28.6252 41.904C28.6732 41.856 28.7212 41.808 28.7692 41.76C29.4412 40.992 29.9692 40.176 30.4492 39.312L30.4972 39.216L31.7932 36.24L20.7052 10.896H25.0252C26.8492 10.896 28.4812 11.952 29.2012 13.632L35.3932 27.792L36.8812 24.432C39.5212 18.192 38.7532 13.872 38.8492 10.896ZM79.3668 10.272C84.5028 10.272 86.9028 13.008 86.9028 19.056V35.616H80.1348V18.432C80.1348 16.704 80.6628 12.528 76.3428 12.384C74.9508 12.336 72.0708 12.816 69.4308 15.216C69.7188 16.32 69.8628 17.568 69.8628 19.056V35.616H63.0948V18.432C63.0948 16.704 63.6228 12.384 59.3508 12.384C57.5748 12.384 55.8948 13.296 53.3988 14.304L53.4468 35.616H46.6788L46.7748 10.848H48.0708C48.1188 10.848 48.1188 10.896 48.1668 10.944C50.0868 13.152 52.0548 14.304 54.5988 12.912C56.4708 11.904 59.8308 10.272 62.3748 10.272C65.8788 10.272 68.0868 11.568 69.1428 14.304C72.9828 11.376 76.9188 10.272 79.3668 10.272ZM114.272 13.536C116.336 15.744 117.584 18.96 117.584 22.8C117.632 25.44 116.912 28.08 115.52 30.384C114.08 32.88 111.728 34.752 108.992 35.664C107.744 36.048 106.496 36.24 105.2 36.24C102.992 36.288 100.832 35.568 99.1042 34.176V46.176H92.3362V35.616L92.4322 10.848H93.7282C93.7762 10.848 93.7762 10.896 93.8242 10.944C95.7442 13.152 97.8562 14.592 100.208 12.864H100.16C101.792 11.568 103.616 10.704 105.92 10.416C106.304 10.368 106.64 10.32 106.976 10.32C109.76 10.32 112.4 11.472 114.272 13.536ZM108.752 32.352C109.808 30.288 110.384 27.168 110.384 23.28C110.384 15.168 108.176 12.288 104.72 12.288C103.712 12.288 102.752 12.528 101.888 12.96C101.888 13.008 101.84 13.008 101.84 13.008C100.784 13.584 99.8722 14.352 99.1042 15.312V30.72C99.9202 33.504 101.792 35.472 104.336 35.472C106.256 35.472 107.744 34.368 108.752 32.352ZM146.869 19.2C149.221 26.736 145.237 33.408 137.989 35.712C130.789 37.968 124.069 34.944 121.717 27.36C119.365 19.872 123.301 13.152 130.597 10.896C137.749 8.64 144.517 11.616 146.869 19.2ZM137.989 35.04C141.877 33.792 142.261 28.608 140.101 21.648C137.893 14.544 134.245 10.416 130.501 11.568C126.661 12.768 126.277 17.952 128.485 25.008C130.693 32.064 134.293 36.192 137.989 35.04ZM166.998 31.248C165.702 34.368 162.63 36.336 159.27 36.24C153.27 36.24 152.646 32.064 152.646 29.712V11.904H149.622V10.944L152.55 10.896H152.646V4.272C152.838 4.272 152.982 4.272 153.174 4.272C156.534 4.56 159.222 7.296 159.366 10.656C159.414 10.752 159.414 10.8 159.414 10.848V10.896V10.992H166.038V15.408H165.99C163.158 13.056 162.006 11.856 159.894 11.856H159.414V29.904C159.414 31.056 159.414 34.224 162.63 34.176C164.166 34.128 165.414 33.168 166.374 31.296L166.998 31.248ZM173.683 7.008C172.339 6.768 171.283 5.712 171.043 4.368C170.755 2.88 171.427 1.392 172.771 0.672C174.067 0 175.699 0.24 176.755 1.296C177.859 2.352 178.099 3.984 177.379 5.28C176.659 6.624 175.171 7.296 173.683 7.008ZM170.995 10.896C172.771 10.896 174.499 11.568 175.795 12.864C177.043 14.112 177.763 15.84 177.763 17.664V35.664H170.995V10.896ZM208.374 34.32V34.56C206.838 35.52 205.014 36.048 203.19 36.048C200.502 36.048 199.35 34.8 198.822 33.648C196.47 35.376 193.59 36.288 190.662 36.24C184.806 36.24 181.062 33.168 181.062 28.512C181.062 20.544 193.734 19.104 193.734 15.12C193.734 14.352 193.206 13.68 192.486 13.488C192.486 13.488 192.438 13.44 192.39 13.44C192.198 13.392 192.054 13.344 191.862 13.344C191.334 13.296 190.806 13.296 190.278 13.344C189.366 13.488 188.502 13.824 187.782 14.352L186.822 13.104C189.174 10.8 192.438 9.696 195.702 10.224C201.126 10.992 205.158 15.504 205.35 22.032L205.254 30.864C205.254 33.072 205.254 34.368 207.462 34.368C207.75 34.368 208.086 34.368 208.374 34.32ZM195.078 10.848C193.782 10.656 193.014 11.52 192.198 12.72C193.878 12.912 195.174 13.872 195.174 15.6C195.174 19.584 188.358 21.936 188.358 27.84C188.358 31.344 190.662 33.648 194.358 33.648C195.798 33.648 197.238 33.264 198.486 32.544V32.496L198.534 20.976C198.486 15.024 198.246 11.28 195.078 10.848Z" fill="#212121"/>
</svg>
